<svg xmlns="http://www.w3.org/2000/svg" viewBox="0 0 1440 900">
  <defs>
    <linearGradient id="grad1" x1="0%" y1="0%" x2="100%" y2="100%">
      <stop offset="0%" style="stop-color:#0099cc;stop-opacity:0.2" />
      <stop offset="100%" style="stop-color:#007aa3;stop-opacity:0.1" />
    </linearGradient>
  </defs>
  
  <!-- Tło -->
  <rect width="100%" height="100%" fill="#f7f9fc" opacity="0.3"/>
  
  <!-- Geometryczne kształty -->
  <polygon points="0,0 300,150 200,300 0,200" fill="url(#grad1)" opacity="0.4"/>
  <polygon points="1440,0 1140,100 1240,300 1440,200" fill="url(#grad1)" opacity="0.3"/>
  <polygon points="720,100 920,150 820,400 620,350" fill="url(#grad1)" opacity="0.2"/>
  <polygon points="400,500 600,550 500,800 300,750" fill="url(#grad1)" opacity="0.3"/>
  <polygon points="1000,500 1200,450 1300,700 1100,750" fill="url(#grad1)" opacity="0.25"/>
  <polygon points="0,700 200,650 300,900 0,900" fill="url(#grad1)" opacity="0.4"/>
  <polygon points="1440,700 1240,750 1140,900 1440,900" fill="url(#grad1)" opacity="0.3"/>
  
  <!-- Kropki -->
  <g opacity="0.2">
    <circle cx="100" cy="100" r="3" fill="#0099cc"/>
    <circle cx="150" cy="150" r="2" fill="#0099cc"/>
    <circle cx="200" cy="100" r="3" fill="#0099cc"/>
    <circle cx="250" cy="150" r="2" fill="#0099cc"/>
    
    <circle cx="1340" cy="100" r="3" fill="#0099cc"/>
    <circle cx="1290" cy="150" r="2" fill="#0099cc"/>
    <circle cx="1240" cy="100" r="3" fill="#0099cc"/>
    <circle cx="1190" cy="150" r="2" fill="#0099cc"/>
    
    <circle cx="700" cy="300" r="3" fill="#0099cc"/>
    <circle cx="750" cy="350" r="2" fill="#0099cc"/>
    <circle cx="800" cy="300" r="3" fill="#0099cc"/>
    <circle cx="850" cy="350" r="2" fill="#0099cc"/>
    
    <circle cx="100" cy="700" r="3" fill="#0099cc"/>
    <circle cx="150" cy="750" r="2" fill="#0099cc"/>
    <circle cx="200" cy="700" r="3" fill="#0099cc"/>
    <circle cx="250" cy="750" r="2" fill="#0099cc"/>
    
    <circle cx="1340" cy="700" r="3" fill="#0099cc"/>
    <circle cx="1290" cy="750" r="2" fill="#0099cc"/>
    <circle cx="1240" cy="700" r="3" fill="#0099cc"/>
    <circle cx="1190" cy="750" r="2" fill="#0099cc"/>
  </g>
  
  <!-- Linie -->
  <g stroke="#0099cc" stroke-width="0.5" opacity="0.1">
    <line x1="0" y1="0" x2="1440" y2="900"/>
    <line x1="1440" y1="0" x2="0" y2="900"/>
    <line x1="720" y1="0" x2="720" y2="900"/>
    <line x1="0" y1="450" x2="1440" y2="450"/>
  </g>
</svg>